<?xml version="1.0" standalone="no"?>
<!DOCTYPE svg PUBLIC "-//W3C//DTD SVG 20010904//EN"
 "http://www.w3.org/TR/2001/REC-SVG-20010904/DTD/svg10.dtd">
<svg version="1.0" xmlns="http://www.w3.org/2000/svg"
 width="512.000000pt" height="512.000000pt" viewBox="0 0 512.000000 512.000000"
 preserveAspectRatio="xMidYMid meet">

<g transform="translate(0.000000,512.000000) scale(0.100000,-0.100000)"
fill="#28282a" stroke="#edeae4" stroke-linecap="round" stroke-width="100pt">
<path d="M787 4470 c-85 -26 -153 -130 -145 -221 7 -71 51 -137 113 -168 l49
-26 836 -5 835 -5 80 -28 c236 -84 397 -285 426 -531 5 -45 9 -536 9 -1101 l0
-1019 -373 371 c-398 397 -393 393 -492 393 -82 -1 -169 -65 -195 -146 -14
-42 -8 -120 12 -159 21 -39 1138 -1153 1174 -1170 45 -21 127 -19 172 4 41 22
1148 1125 1170 1166 20 39 26 117 12 159 -16 50 -66 105 -115 127 -49 23 -123
24 -173 4 -25 -11 -157 -135 -404 -382 l-367 -367 -3 1114 -3 1115 -27 90
c-107 365 -362 632 -713 744 -49 16 -125 34 -168 40 -94 13 -1667 14 -1710 1z"/>
</g>
</svg>
